<svg id="Layer_1" data-name="Layer 1" xmlns="http://www.w3.org/2000/svg" width="250" height="250" viewBox="0 0 250 250"><title>stage-audio-works-agency-logo</title><path d="M237,148.48a1.48,1.48,0,0,0-.36-0.22,1.55,1.55,0,0,0,.94-0.41,1.11,1.11,0,0,0,.31-0.8,1.26,1.26,0,0,0-.18-0.67,1,1,0,0,0-.49-0.42,2.62,2.62,0,0,0-.9-0.12h-2v4.44H235v-2h0.68l0.33,0a0.9,0.9,0,0,1,.27.12,1.29,1.29,0,0,1,.3.3c0.11,0.14.25,0.35,0.42,0.61l0.59,0.92h0.74l-0.77-1.21A3.09,3.09,0,0,0,237,148.48Zm-0.8-.68H235v-1.47h1.4a1.07,1.07,0,0,1,.72.2,0.66,0.66,0,0,1,.23.52,0.72,0.72,0,0,1-.12.4,0.67,0.67,0,0,1-.35.27A1.87,1.87,0,0,1,236.23,147.8Z" style="fill-rule:evenodd"/><path d="M235.9,144.05a4.1,4.1,0,1,0,4.1,4.1A4.1,4.1,0,0,0,235.9,144.05Zm0,7.78a3.67,3.67,0,1,1,3.67-3.67A3.67,3.67,0,0,1,235.9,151.83Z" style="fill-rule:evenodd"/><path d="M72.64,115.48c0-4.49-3-7.79-7.11-7.79a6.09,6.09,0,0,0-5,2.38V97.75h-4.8v25.38h4.9V121.5a5.61,5.61,0,0,0,4.59,2C69.51,123.55,72.64,120.17,72.64,115.48Zm-12.35.24a3.57,3.57,0,1,1,7.11,0A3.57,3.57,0,1,1,60.29,115.72Z" style="fill-rule:evenodd"/><path d="M22.07,109.78a6.4,6.4,0,0,0-4.83-2c-4.25,0-7.18,3.23-7.18,7.93s2.72,7.8,6.8,7.8a6.52,6.52,0,0,0,5.24-2.32v1.94h4.8V97.74H22.07v12Zm-3.5,9.7a3.48,3.48,0,0,1-3.44-3.78,3.69,3.69,0,0,1,3.57-3.95c2.08,0,3.47,1.53,3.47,3.81A3.67,3.67,0,0,1,18.57,119.48Z" style="fill-rule:evenodd"/><path d="M37.47,123.5a8.78,8.78,0,0,0,3.74-.92,20,20,0,0,0,3.27-2l2.11,2.76h5.58l-4.22-5.55a20.62,20.62,0,0,0,1.7-1.46l0.65-.65,0.54-.51-2.69-3.64a18.22,18.22,0,0,1-1.43,1.43,15.46,15.46,0,0,1-1.6,1.36l-2.65-3.4a11.14,11.14,0,0,0,2.86-2.38,5.72,5.72,0,0,0,1.29-3.78c0-3.5-2.48-5.82-6.19-5.82s-6.29,2.42-6.29,5.85a6.42,6.42,0,0,0,.65,2.79,13.06,13.06,0,0,0,1.33,2.25,18.78,18.78,0,0,0-3.47,2.89A5.62,5.62,0,0,0,31,116.79,6.53,6.53,0,0,0,37.47,123.5Zm2.93-20.59a1.69,1.69,0,0,1,1.87,1.77c0,1-.44,1.53-1.87,2.76l-0.48.41a11.14,11.14,0,0,1-.92-1.6,3.15,3.15,0,0,1-.44-1.57A1.68,1.68,0,0,1,40.39,102.91Zm-2.25,10.65c0.37-.27.41-0.31,0.61-0.48l2.93,3.84c-1.91,1.5-2.76,1.94-3.74,1.94a2.16,2.16,0,0,1-2.11-2.18C35.83,115.64,36.41,114.85,38.15,113.56Z" style="fill-rule:evenodd"/><polygon points="175.43 135.9 169.54 135.9 164.64 141.68 164.64 125.48 159.81 125.48 159.81 150.87 164.64 150.87 164.64 144.33 169.37 150.87 175.66 150.87 169.23 142.87 175.43 135.9" style="fill-rule:evenodd"/><rect x="154.19" y="135.9" width="4.83" height="14.97"/><path d="M156.61,127.53a2.88,2.88,0,0,0-2.86,2.89,2.93,2.93,0,0,0,2.89,2.89,2.88,2.88,0,0,0,2.89-2.86A3,3,0,0,0,156.61,127.53Z" style="fill-rule:evenodd"/><path d="M148.32,135.45a5.63,5.63,0,0,0-2.25.44,7,7,0,0,0-2.72,2v-2h-4.83v15h4.76v-7.49c0-2.45,1.05-3.81,2.93-3.81,1.6,0,2.31,1,2.31,3.06v8.23h4.83v-9.59c0-2.52-.44-3.81-1.67-4.76A5.45,5.45,0,0,0,148.32,135.45Z" style="fill-rule:evenodd"/><path d="M132.69,135.45a5.63,5.63,0,0,0-2.25.44,7,7,0,0,0-2.72,2V125.49h-4.83v25.38h4.76v-7.49c0-2.45,1.05-3.81,2.93-3.81,1.6,0,2.31,1,2.31,3.06v8.23h4.83v-9.59c0-2.52-.44-3.81-1.67-4.76A5.45,5.45,0,0,0,132.69,135.45Z" style="fill-rule:evenodd"/><path d="M117.83,135.39a7.84,7.84,0,0,0-8.2,8.06,7.52,7.52,0,0,0,7.86,7.86,12.88,12.88,0,0,0,4.56-1V146a5.35,5.35,0,0,1-3.4,1.29,3.85,3.85,0,0,1-4-3.95c0-2.18,1.6-3.64,4-3.64a6.5,6.5,0,0,1,3.33,1v-4.42a13.88,13.88,0,0,0-2.45-.68A10.36,10.36,0,0,0,117.83,135.39Z" style="fill-rule:evenodd"/><path d="M107.14,138a7.48,7.48,0,0,0-6-2.69c-4.52,0-7.76,3.37-7.76,8.06a7.52,7.52,0,0,0,7.89,7.9,8.19,8.19,0,0,0,7.08-3.71l-3.91-1.91a3.42,3.42,0,0,1-3,1.91,3.35,3.35,0,0,1-3.44-3.2H108.8v-0.34a10,10,0,0,0-.51-3.78A7.36,7.36,0,0,0,107.14,138Zm-9.08,3.54c0.37-1.87,1.43-2.86,3-2.86s2.65,1,3.06,2.86H98.05Z" style="fill-rule:evenodd"/><polygon points="93.5 135.9 90.81 135.9 90.81 130.72 85.94 130.72 85.94 135.9 83.9 135.9 83.9 139.47 85.94 139.47 85.94 150.87 90.77 150.87 90.77 139.47 93.5 139.47 93.5 135.9" style="fill-rule:evenodd"/><path d="M75.53,135.4a7.87,7.87,0,0,0-8.27,8c0,4.66,3.54,8.07,8.37,8.07A8,8,0,0,0,84,143.4C84,138.84,80.37,135.4,75.53,135.4Zm0.07,11.84a3.55,3.55,0,0,1-3.47-3.74,3.63,3.63,0,0,1,3.54-3.84,3.54,3.54,0,0,1,3.4,3.81A3.58,3.58,0,0,1,75.6,147.24Z" style="fill-rule:evenodd"/><rect x="61.51" y="135.91" width="4.83" height="14.97"/><path d="M63.93,127.54a2.88,2.88,0,0,0-2.86,2.89A2.93,2.93,0,0,0,64,133.33a2.88,2.88,0,0,0,2.89-2.86A3,3,0,0,0,63.93,127.54Z" style="fill-rule:evenodd"/><path d="M55.68,137.52a6.39,6.39,0,0,0-4.83-2c-4.25,0-7.18,3.23-7.18,7.93s2.72,7.8,6.8,7.8a6.52,6.52,0,0,0,5.24-2.32v1.94h4.8V125.47H55.68v12Zm-3.5,9.7a3.48,3.48,0,0,1-3.44-3.78,3.69,3.69,0,0,1,3.57-3.95c2.08,0,3.47,1.53,3.47,3.81A3.67,3.67,0,0,1,52.18,147.21Z" style="fill-rule:evenodd"/><path d="M38,143.78c0,2.45-.82,3.54-2.65,3.54a2.78,2.78,0,0,1-1.6-.48c-0.85-.58-1.16-1.43-1.16-3.2v-7.76H27.73v7.89c0,2.86.37,4.18,1.56,5.41a8.36,8.36,0,0,0,6.09,2.25,7.65,7.65,0,0,0,6.19-2.59c0.88-1.16,1.19-2.38,1.19-4.76v-8.2H38v7.89Z" style="fill-rule:evenodd"/><path d="M22,137.9a5.43,5.43,0,0,0-1.9-1.74,6.4,6.4,0,0,0-3.1-.71c-4.15,0-7,3.2-7,7.93s2.89,7.93,7,7.93a7.4,7.4,0,0,0,2.45-.41A7.8,7.8,0,0,0,22,149.36v1.5h4.76v-15H22v2Zm-3.27,9.63c-2.14,0-3.67-1.7-3.67-4.08a3.57,3.57,0,0,1,3.54-3.88,3.76,3.76,0,0,1,3.71,4A3.64,3.64,0,0,1,18.74,147.53Z" style="fill-rule:evenodd"/><rect x="177.07" y="99.38" width="25.14" height="24.71"/><rect x="204.84" y="126.72" width="25.14" height="24.71"/><rect x="204.84" y="99.38" width="25.14" height="24.71"/><circle cx="189.8" cy="139.21" r="12.49"/></svg>