<?xml version="1.0" encoding="UTF-8"?>
<svg xmlns="http://www.w3.org/2000/svg" id="Layer_1" data-name="Layer 1" width="1765" height="200" viewBox="0 0 1765 200">
  <title>l-acoustics-logo</title>
  <g>
    <path d="M0,0V200H200.00621V0ZM15.43734,182.50511V15.26239A167.25219,167.25219,0,0,1,182.7529,182.50511ZM182.7529,57.85843H140.1603v-42.596h42.5926Z" style="fill: #bd9e55"/>
    <path d="M330.67824,124.477h49.87522v35.14074H279.96634V39.90352h50.7119ZM723.391,71.35341c8.85663,0,20.13879,0,29.78451,1.50565L767.6439,39.18723c-11.23885-2.25081-24.11408-3.02524-37.00364-3.02524-53.12428,0-98.98466,29.97384-103.82123,64.38425-5.6269,33.66436,24.14273,62.82017,76.4627,62.82017a180.82551,180.82551,0,0,0,39.42939-4.47988l13.69393-33.62009c-12.87523,2.17767-30.573,3.69731-40.248,2.91541-28.16228,0-41.82633-11.20154-39.41546-29.14868C679.13832,82.58478,701.67427,71.35341,723.391,71.35341ZM965.65581,99.03317c-5.65611,34.40294-51.53144,64.33324-104.63988,64.33324-53.12366,0-88.52018-29.15578-82.89329-62.82017C782.93028,66.13583,828.84948,36.162,881.94416,36.162,935.87118,36.162,970.47833,66.13583,965.65581,99.03317Zm-90.961-27.67976c-21.73192,0-44.25293,11.23137-46.664,27.67976-2.44076,17.94714,17.72736,29.14868,39.42973,29.14868,21.73192,0,44.25293-11.20154,46.6638-27.63561C917.35472,82.58478,896.44145,71.35341,874.69486,71.35341ZM556.82962,39.90352h46.66476V159.61775H557.60473c-5.627-8.95163-22.536-11.90344-38.623-11.20216-17.68343,0-35.42175,4.49388-45.07438,11.20216H416.77924Zm2.39683,36.68184L509.318,124.477h49.90848Zm-152.91478,8.9591v53.1526l57.1612-53.1526Zm725.93374-45.64094-29.78367,63.60207c-5.64106,14.27847-18.51708,23.93858-42.65981,24.67632-20.899.7819-32.21027-13.42309-26.58337-32.11544l24.961-56.16295h-45.84572L988.96563,94.57567c-.78943,2.2216-1.59324,4.45747-2.38256,6.7525-9.6601,33.62756,16.0907,62.03819,61.92159,62.03819,54.74583,0,88.56428-26.905,102.24321-60.59172l27.35786-62.87123Zm469.97266,31.44994c8.067,0,20.12447,0,29.78446,1.50566l14.49769-33.67183c-11.28245-2.25081-24.15768-3.02524-37.04785-3.02524-53.09429,0-98.95484,29.97384-103.77736,64.38425-5.64116,33.66435,23.30982,62.82017,76.44837,62.82017a181.23142,181.23142,0,0,0,39.42973-4.47989l13.66466-33.62008c-12.87523,2.17767-30.574,3.69731-40.21916,2.91541-28.2065,0-41.856-11.20155-39.44434-29.14868,2.39649-16.44845,24.94711-27.67982,46.6638-27.67982Zm160.96361,45.6269-12.86029-34.39552c-.81864-2.95929-2.441-5.99948-4.01883-9.72572a81.2456,81.2456,0,0,1-3.24445-13.47478c0-6.72975.81831-13.43056,5.64094-19.48082H1700.398c-8.85641,7.50423-5.59667,23.22982-3.20018,29.19941l17.69786,42.61559a5.9436,5.9436,0,0,1,0,5.26179c-.80347,4.54494-4.0332,6.77334-7.24844,8.28613a36.35662,36.35662,0,0,1-12.84591,2.17767,120.32811,120.32811,0,0,1-31.392-2.17767l-14.49735,32.8974,9.63045,1.454c54.73111,11.23137,99.01292-3.73378,104.63925-26.91281,1.59313-5.97712,2.42671-11.17975,0-15.72469ZM1409.073,159.61781h45.87527l49.08983-119.71429h-44.26731Zm-152.093-77.033c-.8037-2.95929-2.4257-5.99948-4.01894-9.72572a39.91939,39.91939,0,0,1-2.4257-13.47478,28.4758,28.4758,0,0,1,4.85241-19.48082h-48.316c-8.85629,7.50423-5.61184,23.22982-3.24422,29.19941l17.72764,42.61565c.80358,1.52057.80358,3.75613.80358,5.26178-1.60728,4.545-4.80825,6.77335-8.02372,8.28614a36.40013,36.40013,0,0,1-12.87512,2.17767c-8.87067.73774-20.13884,0-31.42095-2.17767l-14.48274,32.89739,9.6601,1.454c54.73078,11.23138,99.01292-3.73377,104.6542-26.91281,1.5638-5.97706,2.38222-11.17969,0-15.72463Zm174.61433-42.68132h-127.9357l-15.31532,31.44994h44.28125l-37.85122,88.26435H1341.467c2.41087-5.98459,9.66-23.95347,17.72708-41.83375,9.66011-20.9867,20.09526-44.92494,23.30982-46.43057h35.41147Z" style="fill: #b2b2b2"/>
  </g>
</svg>