<svg id="Layer_1" xmlns="http://www.w3.org/2000/svg" viewBox="0 0 841.89 595.275">
<g>
	<path fill="#666666" d="M352.497,216.386h3.256v29.189h12.396v3.166h-15.651V216.386z"/>
	<path fill="#666666" d="M391.026,216.386l15.08,32.355h-3.49l-5.027-10.596h-14.04l-5.008,10.596h-3.605l15.301-32.355H391.026z
		 M390.615,223.198l-5.566,11.782h11.099L390.615,223.198z"/>
	<path fill="#666666" d="M414.143,248.741l4.648-32.355h0.508l13.156,26.551l13.035-26.551h0.487l4.694,32.355H447.5l-3.218-23.123
		l-11.442,23.123h-0.848l-11.545-23.296l-3.185,23.296H414.143z"/>
	<path fill="#666666" d="M461.542,216.386h6.363c2.55,0,4.521,0.301,5.895,0.911s2.46,1.548,3.256,2.812s1.194,2.665,1.194,4.199
		c0,1.444-0.347,2.748-1.06,3.93s-1.74,2.145-3.114,2.877c1.695,0.571,2.998,1.239,3.917,2.01c0.911,0.771,1.618,1.695,2.132,2.793
		c0.514,1.092,0.764,2.273,0.764,3.551c0,2.594-0.943,4.784-2.844,6.581c-1.889,1.799-4.438,2.691-7.629,2.691h-8.874V216.386z
		 M464.715,219.551v10.376h1.836c2.222,0,3.859-0.212,4.905-0.629c1.054-0.417,1.882-1.079,2.491-1.984
		c0.61-0.898,0.919-1.9,0.919-3.005c0-1.483-0.521-2.646-1.535-3.486c-1.027-0.848-2.665-1.271-4.905-1.271H464.715z
		 M464.715,233.183v12.393h3.986c2.344,0,4.071-0.231,5.17-0.693c1.091-0.456,1.978-1.182,2.633-2.164
		c0.667-0.982,1.001-2.042,1.001-3.185c0-1.433-0.476-2.69-1.413-3.757c-0.938-1.072-2.221-1.804-3.865-2.202
		c-1.098-0.263-2.998-0.392-5.701-0.392H464.715z"/>
	<path fill="#666666" d="M489.949,248.741v-32.355h6.69c4.842,0,8.348,0.391,10.53,1.168c3.127,1.104,5.58,3.005,7.346,5.721
		c1.76,2.71,2.646,5.946,2.646,9.696c0,3.242-0.706,6.094-2.1,8.56c-1.399,2.459-3.217,4.282-5.451,5.451
		c-2.229,1.175-5.355,1.76-9.388,1.76H489.949z M493.069,245.665h3.725c4.456,0,7.538-0.282,9.271-0.835
		c2.421-0.79,4.328-2.215,5.715-4.27c1.388-2.055,2.081-4.572,2.081-7.545c0-3.114-0.758-5.785-2.254-7.994
		c-1.51-2.209-3.603-3.725-6.293-4.546c-2.01-0.616-5.336-0.925-9.972-0.925h-2.273V245.665z"/>
	<path fill="#666666" d="M539.313,216.386l15.077,32.355h-3.48l-5.034-10.596H531.84l-5.009,10.596h-3.608l15.295-32.355H539.313z
		 M538.902,223.198l-5.566,11.782h11.108L538.902,223.198z"/>
	<path fill="#666666" d="M363.865,261.525l15.077,32.355h-3.487l-5.027-10.595h-14.039l-5.009,10.595h-3.605l15.298-32.355H363.865z
		 M363.455,268.338l-5.567,11.782h11.104L363.455,268.338z"/>
	<path fill="#666666" d="M410.854,267.522l-2.549,1.958c-1.413-1.83-3.099-3.217-5.076-4.167c-1.968-0.944-4.132-1.413-6.495-1.413
		c-2.584,0-4.973,0.617-7.178,1.856c-2.196,1.232-3.901,2.896-5.111,4.982c-1.207,2.087-1.811,4.437-1.811,7.037
		c0,3.942,1.352,7.23,4.055,9.863s6.122,3.955,10.241,3.955c4.53,0,8.318-1.778,11.375-5.323l2.549,1.939
		c-1.614,2.055-3.624,3.647-6.032,4.771c-2.411,1.124-5.104,1.689-8.078,1.689c-5.66,0-10.122-1.889-13.385-5.645
		c-2.741-3.179-4.112-7.019-4.112-11.513c0-4.732,1.66-8.707,4.979-11.937c3.32-3.23,7.475-4.842,12.473-4.842
		c3.019,0,5.744,0.597,8.178,1.785C407.307,263.708,409.301,265.378,410.854,267.522z"/>
	<path fill="#666666" d="M431.119,260.735c4.906,0,9.003,1.631,12.303,4.893c3.294,3.269,4.944,7.288,4.944,12.065
		c0,4.726-1.644,8.739-4.938,12.039c-3.294,3.288-7.308,4.938-12.04,4.938c-4.796,0-8.848-1.645-12.148-4.919
		c-3.3-3.288-4.95-7.256-4.95-11.904c0-3.108,0.751-5.984,2.254-8.637c1.502-2.646,3.558-4.726,6.151-6.229
		C425.296,261.486,428.102,260.735,431.119,260.735z M431.261,263.9c-2.382,0-4.636,0.617-6.78,1.862
		c-2.132,1.246-3.814,2.922-5.009,5.027c-1.194,2.101-1.798,4.457-1.798,7.045c0,3.826,1.322,7.069,3.98,9.708
		c2.665,2.646,5.869,3.962,9.606,3.962c2.511,0,4.822-0.61,6.947-1.817c2.132-1.22,3.788-2.883,4.983-4.982
		c1.193-2.106,1.785-4.45,1.785-7.024c0-2.562-0.592-4.874-1.785-6.948c-1.195-2.067-2.871-3.724-5.034-4.97
		C435.986,264.518,433.694,263.9,431.261,263.9z"/>
	<path fill="#666666" d="M453.361,261.525h3.256v19.52c0,2.312,0.045,3.757,0.135,4.328c0.167,1.277,0.539,2.344,1.117,3.197
		c0.591,0.86,1.49,1.579,2.703,2.151c1.221,0.578,2.44,0.873,3.674,0.873c1.072,0,2.1-0.225,3.075-0.681
		c0.989-0.456,1.804-1.085,2.466-1.895c0.654-0.809,1.143-1.778,1.451-2.921c0.218-0.822,0.327-2.505,0.327-5.054v-19.52h3.256
		v19.52c0,2.883-0.282,5.221-0.848,6.999s-1.695,3.326-3.391,4.648c-1.701,1.316-3.75,1.979-6.164,1.979
		c-2.606,0-4.842-0.623-6.716-1.869c-1.863-1.246-3.108-2.896-3.737-4.944c-0.398-1.259-0.604-3.531-0.604-6.812V261.525z"/>
	<path fill="#666666" d="M479.412,287.794l2.748-1.65c1.926,3.576,4.154,5.361,6.685,5.361c1.079,0,2.093-0.25,3.044-0.751
		c0.949-0.508,1.669-1.182,2.17-2.036c0.488-0.848,0.738-1.74,0.738-2.69c0-1.085-0.366-2.145-1.085-3.178
		c-1.015-1.438-2.851-3.166-5.522-5.188c-2.678-2.035-4.354-3.513-5.002-4.418c-1.137-1.521-1.715-3.172-1.715-4.938
		c0-1.399,0.348-2.69,1.016-3.84c0.667-1.156,1.617-2.067,2.838-2.735c1.22-0.661,2.536-0.995,3.968-0.995
		c1.516,0,2.94,0.379,4.264,1.13c1.316,0.751,2.71,2.145,4.187,4.167l-2.639,1.997c-1.201-1.611-2.229-2.678-3.076-3.185
		c-0.848-0.514-1.772-0.771-2.773-0.771c-1.285,0-2.344,0.398-3.159,1.188c-0.822,0.784-1.233,1.767-1.233,2.915
		c0,0.707,0.148,1.388,0.437,2.042c0.296,0.655,0.822,1.381,1.593,2.146c0.424,0.417,1.805,1.489,4.148,3.235
		c2.786,2.062,4.687,3.897,5.727,5.516c1.027,1.605,1.548,3.23,1.548,4.849c0,2.35-0.893,4.379-2.665,6.112
		c-1.771,1.733-3.942,2.595-6.491,2.595c-1.958,0-3.737-0.527-5.329-1.587C482.23,292.038,480.767,290.266,479.412,287.794z"/>
	<path fill="#666666" d="M503.555,264.69v-3.165h17.716v3.165h-7.204v29.19h-3.301v-29.19H503.555z"/>
	<path fill="#666666" d="M528.636,261.525h3.255v32.355h-3.255V261.525z"/>
	<path fill="#666666" d="M569.409,267.522l-2.549,1.958c-1.413-1.83-3.102-3.217-5.066-4.167c-1.984-0.944-4.142-1.413-6.505-1.413
		c-2.581,0-4.97,0.617-7.166,1.856c-2.209,1.232-3.91,2.896-5.117,4.982c-1.214,2.087-1.817,4.437-1.817,7.037
		c0,3.942,1.349,7.23,4.059,9.863s6.126,3.955,10.241,3.955c4.533,0,8.322-1.778,11.372-5.323l2.549,1.939
		c-1.611,2.055-3.622,3.647-6.036,4.771c-2.407,1.124-5.098,1.689-8.077,1.689c-5.657,0-10.113-1.889-13.388-5.645
		c-2.735-3.179-4.109-7.019-4.109-11.513c0-4.732,1.662-8.707,4.982-11.937c3.313-3.23,7.474-4.842,12.47-4.842
		c3.024,0,5.753,0.597,8.181,1.785C565.865,263.708,567.861,265.378,569.409,267.522z"/>
	<path fill="#666666" d="M574.142,287.794l2.748-1.65c1.933,3.576,4.161,5.361,6.685,5.361c1.085,0,2.1-0.25,3.043-0.751
		c0.951-0.508,1.676-1.182,2.171-2.036c0.494-0.848,0.738-1.74,0.738-2.69c0-1.085-0.359-2.145-1.079-3.178
		c-1.014-1.438-2.851-3.166-5.521-5.188c-2.685-2.035-4.354-3.513-5.009-4.418c-1.13-1.521-1.708-3.172-1.708-4.938
		c0-1.399,0.347-2.69,1.015-3.84c0.668-1.156,1.618-2.067,2.838-2.735c1.22-0.661,2.53-0.995,3.968-0.995
		c1.516,0,2.936,0.379,4.264,1.13c1.311,0.751,2.71,2.145,4.188,4.167l-2.646,1.997c-1.193-1.611-2.221-2.678-3.068-3.185
		c-0.848-0.514-1.772-0.771-2.774-0.771c-1.29,0-2.35,0.398-3.165,1.188c-0.816,0.784-1.227,1.767-1.227,2.915
		c0,0.707,0.141,1.388,0.437,2.042c0.295,0.655,0.821,1.381,1.593,2.146c0.424,0.417,1.804,1.489,4.147,3.235
		c2.78,2.062,4.688,3.897,5.722,5.516c1.033,1.605,1.547,3.23,1.547,4.849c0,2.35-0.886,4.379-2.658,6.112
		c-1.778,1.733-3.942,2.595-6.498,2.595c-1.952,0-3.73-0.527-5.33-1.587C576.967,292.038,575.496,290.266,574.142,287.794z"/>
	<g>
		<rect x="324.694" y="210.542" fill="#666666" width="2.812" height="89.284"/>
	</g>
	<g>
		<path fill="#FFFFFF" stroke="#666666" stroke-miterlimit="2" d="M300.939,277.205c0,5.946-4.726,13.125-10.592,13.125
			c-5.673,0-6.818-2.434-8.135-5.24l-0.125-0.263c-0.861-1.83-7.928-23.116-12.602-37.19c-3.076-9.253-4.688-14.114-4.929-14.718
			l-0.118-0.308c-5.041-13.054-12.023-15.796-17-15.796c-11.68,0-13.083,16.38-13.138,17.08l3.483,0.038
			c0.014-0.141,1.311-13.76,9.654-13.76c5.397,0,10.229,4.815,13.606,13.574l0.132,0.353c0.176,0.431,1.596,4.682,3.348,9.953
			l-30.432,49.859l4.183-0.084l27.769-45.204c6.456,19.449,11.875,35.701,12.745,37.55l0.122,0.251
			c1.352,2.89,3.406,7.263,11.436,7.263c8.794,0,14.194-9.6,14.194-16.483H300.939z"/>
	</g>
</g>
<g>
	<path fill="#666666" d="M303.919,317.352h1.171l2.711,6.423l2.822-6.423h0.206l2.841,6.423l2.764-6.423h1.184l-3.842,8.846h-0.211
		l-2.829-6.333l-2.827,6.333h-0.212L303.919,317.352z"/>
	<path fill="#666666" d="M324.417,317.352h1.171l2.711,6.423l2.822-6.423h0.206l2.841,6.423l2.764-6.423h1.184l-3.842,8.846h-0.211
		l-2.829-6.333l-2.827,6.333h-0.212L324.417,317.352z"/>
	<path fill="#666666" d="M344.915,317.352h1.171l2.711,6.423l2.822-6.423h0.206l2.841,6.423l2.764-6.423h1.184l-3.842,8.846h-0.211
		l-2.829-6.333l-2.827,6.333h-0.212L344.915,317.352z"/>
	<path fill="#666666" d="M367.86,324.408c0.276,0,0.512,0.098,0.707,0.293c0.195,0.195,0.293,0.434,0.293,0.716
		c0,0.276-0.098,0.514-0.293,0.711c-0.195,0.198-0.431,0.297-0.707,0.297s-0.512-0.099-0.708-0.297
		c-0.195-0.197-0.292-0.435-0.292-0.711c0-0.282,0.097-0.521,0.292-0.716S367.583,324.408,367.86,324.408z"/>
	<path fill="#666666" d="M377.708,313.937h1.138v12.261h-1.138V313.937z"/>
	<path fill="#666666" d="M396.685,317.352v8.846h-1.122v-1.521c-0.477,0.58-1.012,1.017-1.605,1.31
		c-0.594,0.292-1.243,0.438-1.947,0.438c-1.252,0-2.321-0.454-3.208-1.361c-0.886-0.908-1.329-2.013-1.329-3.313
		c0-1.273,0.447-2.363,1.341-3.269s1.97-1.357,3.228-1.357c0.727,0,1.384,0.154,1.972,0.463c0.588,0.31,1.104,0.772,1.549,1.391
		v-1.626H396.685z M392.136,318.222c-0.633,0-1.218,0.155-1.754,0.467c-0.536,0.312-0.962,0.749-1.279,1.312
		c-0.317,0.563-0.475,1.158-0.475,1.786c0,0.623,0.16,1.219,0.479,1.787s0.749,1.011,1.287,1.328
		c0.539,0.316,1.117,0.475,1.734,0.475c0.623,0,1.213-0.157,1.771-0.471c0.558-0.314,0.986-0.739,1.287-1.275
		c0.3-0.536,0.451-1.14,0.451-1.811c0-1.023-0.337-1.879-1.011-2.566C393.951,318.565,393.122,318.222,392.136,318.222z"/>
	<path fill="#666666" d="M405.898,317.352h1.138v1.528c0.396-0.563,0.803-0.976,1.221-1.235c0.575-0.347,1.181-0.521,1.815-0.521
		c0.429,0,0.835,0.084,1.221,0.252s0.7,0.392,0.944,0.671s0.456,0.679,0.635,1.199c0.378-0.694,0.852-1.221,1.419-1.581
		c0.568-0.361,1.179-0.541,1.833-0.541c0.611,0,1.15,0.154,1.618,0.463c0.468,0.31,0.815,0.74,1.042,1.293s0.341,1.382,0.341,2.488
		v4.829h-1.163v-4.829c0-0.948-0.068-1.601-0.203-1.956c-0.135-0.354-0.366-0.641-0.693-0.857c-0.327-0.217-0.717-0.325-1.171-0.325
		c-0.551,0-1.055,0.163-1.512,0.488s-0.79,0.759-1,1.301c-0.211,0.542-0.316,1.447-0.316,2.715v3.464h-1.138v-4.528
		c0-1.068-0.066-1.793-0.199-2.175c-0.133-0.383-0.365-0.688-0.695-0.919s-0.724-0.346-1.179-0.346
		c-0.526,0-1.018,0.158-1.476,0.476c-0.458,0.317-0.797,0.744-1.017,1.28c-0.219,0.537-0.329,1.358-0.329,2.464v3.748h-1.138
		V317.352z"/>
	<path fill="#666666" d="M428.258,326.197v-12.261h1.139v4.936c0.477-0.586,1.01-1.023,1.6-1.313s1.237-0.435,1.941-0.435
		c1.251,0,2.318,0.454,3.204,1.361c0.886,0.908,1.328,2.01,1.328,3.306c0,1.279-0.446,2.371-1.341,3.276
		c-0.893,0.905-1.968,1.357-3.225,1.357c-0.72,0-1.372-0.154-1.957-0.463c-0.584-0.31-1.102-0.772-1.551-1.391v1.626H428.258z
		 M432.811,325.327c0.633,0,1.217-0.155,1.752-0.468c0.535-0.312,0.961-0.749,1.277-1.312s0.475-1.16,0.475-1.789
		c0-0.628-0.159-1.228-0.479-1.797c-0.318-0.568-0.747-1.012-1.285-1.329c-0.538-0.316-1.113-0.476-1.724-0.476
		c-0.622,0-1.212,0.159-1.772,0.476c-0.56,0.317-0.989,0.744-1.289,1.28c-0.301,0.537-0.451,1.142-0.451,1.813
		c0,1.024,0.337,1.881,1.01,2.569C430.998,324.983,431.826,325.327,432.811,325.327z"/>
	<path fill="#666666" d="M455.032,313.937v12.261h-1.122v-1.521c-0.477,0.58-1.012,1.017-1.605,1.31
		c-0.594,0.292-1.242,0.438-1.947,0.438c-1.252,0-2.321-0.454-3.207-1.361c-0.887-0.908-1.33-2.013-1.33-3.313
		c0-1.273,0.447-2.363,1.342-3.269s1.971-1.357,3.229-1.357c0.726,0,1.383,0.154,1.971,0.463c0.588,0.31,1.104,0.772,1.549,1.391
		v-5.041H455.032z M450.483,318.222c-0.634,0-1.218,0.155-1.754,0.467s-0.962,0.749-1.279,1.312
		c-0.317,0.563-0.476,1.158-0.476,1.786c0,0.623,0.16,1.219,0.479,1.787s0.749,1.011,1.287,1.328
		c0.539,0.316,1.116,0.475,1.733,0.475c0.623,0,1.213-0.157,1.771-0.471c0.557-0.314,0.986-0.739,1.287-1.275
		c0.3-0.536,0.45-1.14,0.45-1.811c0-1.023-0.337-1.879-1.011-2.566S451.469,318.222,450.483,318.222z"/>
	<path fill="#666666" d="M473.083,317.352v8.846h-1.122v-1.521c-0.477,0.58-1.012,1.017-1.605,1.31
		c-0.594,0.292-1.242,0.438-1.947,0.438c-1.252,0-2.321-0.454-3.207-1.361c-0.887-0.908-1.33-2.013-1.33-3.313
		c0-1.273,0.447-2.363,1.342-3.269s1.971-1.357,3.228-1.357c0.727,0,1.384,0.154,1.972,0.463c0.588,0.31,1.104,0.772,1.549,1.391
		v-1.626H473.083z M468.534,318.222c-0.634,0-1.218,0.155-1.755,0.467c-0.535,0.312-0.962,0.749-1.278,1.312
		c-0.317,0.563-0.476,1.158-0.476,1.786c0,0.623,0.16,1.219,0.479,1.787s0.749,1.011,1.287,1.328
		c0.538,0.316,1.116,0.475,1.733,0.475c0.623,0,1.213-0.157,1.771-0.471c0.557-0.314,0.986-0.739,1.287-1.275
		c0.3-0.536,0.45-1.14,0.45-1.811c0-1.023-0.337-1.879-1.011-2.566S469.52,318.222,468.534,318.222z"/>
	<path fill="#666666" d="M483.557,324.408c0.276,0,0.512,0.098,0.707,0.293s0.293,0.434,0.293,0.716
		c0,0.276-0.098,0.514-0.293,0.711c-0.195,0.198-0.431,0.297-0.707,0.297s-0.512-0.099-0.707-0.297
		c-0.195-0.197-0.293-0.435-0.293-0.711c0-0.282,0.098-0.521,0.293-0.716S483.28,324.408,483.557,324.408z"/>
	<path fill="#666666" d="M498.021,318.319l-0.732,0.756c-0.607-0.591-1.203-0.886-1.783-0.886c-0.371,0-0.688,0.121-0.951,0.365
		s-0.395,0.528-0.395,0.854c0,0.288,0.107,0.562,0.326,0.821c0.217,0.266,0.674,0.577,1.367,0.936
		c0.848,0.438,1.424,0.861,1.729,1.268c0.299,0.412,0.447,0.876,0.447,1.391c0,0.727-0.254,1.342-0.766,1.846
		c-0.51,0.504-1.148,0.756-1.912,0.756c-0.512,0-0.998-0.111-1.463-0.333c-0.463-0.223-0.848-0.528-1.152-0.919l0.717-0.813
		c0.58,0.656,1.197,0.984,1.85,0.984c0.455,0,0.844-0.146,1.164-0.439c0.322-0.292,0.482-0.637,0.482-1.032
		c0-0.325-0.107-0.615-0.318-0.87c-0.213-0.249-0.689-0.563-1.434-0.943c-0.799-0.411-1.342-0.818-1.631-1.219
		c-0.287-0.401-0.432-0.859-0.432-1.374c0-0.673,0.23-1.23,0.689-1.675s1.037-0.667,1.738-0.667
		C496.377,317.124,497.197,317.522,498.021,318.319z"/>
	<path fill="#666666" d="M514.324,317.352h1.139v7.049c0,1.241-0.109,2.149-0.326,2.724c-0.297,0.813-0.814,1.439-1.553,1.878
		c-0.736,0.439-1.623,0.659-2.658,0.659c-0.758,0-1.439-0.107-2.045-0.322c-0.604-0.215-1.096-0.503-1.475-0.864
		c-0.379-0.362-0.729-0.891-1.049-1.586h1.236c0.336,0.585,0.77,1.019,1.301,1.301c0.533,0.281,1.191,0.423,1.979,0.423
		c0.775,0,1.432-0.145,1.967-0.434c0.533-0.289,0.916-0.652,1.143-1.09c0.229-0.438,0.342-1.145,0.342-2.119v-0.455
		c-0.428,0.542-0.951,0.958-1.57,1.248s-1.275,0.435-1.969,0.435c-0.814,0-1.58-0.202-2.295-0.605
		c-0.717-0.404-1.271-0.947-1.662-1.63c-0.391-0.684-0.584-1.434-0.584-2.253c0-0.818,0.203-1.581,0.609-2.288
		s0.971-1.268,1.689-1.679c0.719-0.412,1.477-0.618,2.273-0.618c0.662,0,1.279,0.137,1.852,0.41
		c0.572,0.274,1.125,0.726,1.656,1.354V317.352z M510.967,318.222c-0.645,0-1.244,0.155-1.797,0.468
		c-0.553,0.312-0.986,0.742-1.301,1.292c-0.314,0.551-0.471,1.146-0.471,1.785c0,0.97,0.324,1.772,0.975,2.406
		s1.494,0.951,2.529,0.951c1.045,0,1.887-0.314,2.523-0.943c0.637-0.628,0.955-1.455,0.955-2.479c0-0.667-0.146-1.262-0.438-1.784
		c-0.293-0.523-0.709-0.937-1.244-1.24C512.162,318.373,511.584,318.222,510.967,318.222z"/>
</g>
</svg>
