<?xml version="1.0" encoding="utf-8"?>
<!-- Generator: Adobe Illustrator 16.0.0, SVG Export Plug-In . SVG Version: 6.00 Build 0)  -->
<!DOCTYPE svg PUBLIC "-//W3C//DTD SVG 1.1//EN" "http://www.w3.org/Graphics/SVG/1.1/DTD/svg11.dtd">
<svg version="1.1" id="logo_x5F_wavl" xmlns="http://www.w3.org/2000/svg" xmlns:xlink="http://www.w3.org/1999/xlink" x="0px"
	 y="0px" width="194px" height="44px" viewBox="-87 42 194 44" enable-background="new -87 42 194 44" xml:space="preserve">
<path id="Worship" fill="#1D1D1B" d="M-78.995,68.483l0.522,3.569l0.132,0.022l0.75-3.592l5.115-18.658h3.341l5.15,18.658
	l0.771,3.666h0.111l0.565-3.666l4.143-18.658h3.786l-6.731,28.547h-3.372l-5.513-19.803l-0.489-2.559h-0.107l-0.493,2.559
	l-5.602,19.803h-3.375L-87,49.825h3.764L-78.995,68.483z M-54.987,68.261c0-2.944,0.803-5.363,2.38-7.272
	c1.598-1.885,3.748-2.84,6.491-2.84c2.747,0,4.942,0.954,6.521,2.829c1.608,1.903,2.381,4.329,2.381,7.283v0.402
	c0,2.959-0.774,5.38-2.369,7.269c-1.588,1.886-3.762,2.825-6.483,2.825c-2.771,0-4.926-0.939-6.539-2.84
	c-1.577-1.892-2.383-4.303-2.383-7.254L-54.987,68.261L-54.987,68.261z M-51.368,68.661c0,2.092,0.451,3.835,1.334,5.195
	c0.879,1.367,2.206,2.052,3.969,2.052c1.706,0,3.021-0.685,3.919-2.052c0.883-1.36,1.349-3.104,1.349-5.195V68.25
	c0-2.081-0.468-3.806-1.351-5.192c-0.898-1.379-2.224-2.08-3.966-2.08c-1.731,0-3.04,0.703-3.918,2.08
	c-0.882,1.387-1.333,3.111-1.333,5.192L-51.368,68.661L-51.368,68.661z M-24.094,61.708l-1.841-0.112
	c-0.957,0-1.74,0.225-2.414,0.685c-0.641,0.449-1.164,1.077-1.518,1.893V78.37h-3.623V58.513h3.229l0.353,2.904
	c0.561-1.031,1.277-1.844,2.083-2.407c0.843-0.573,1.796-0.861,2.867-0.861c0.281,0,0.519,0.018,0.771,0.058
	c0.258,0.054,0.444,0.084,0.616,0.148L-24.094,61.708z M-9.387,73.077c0-0.787-0.295-1.443-0.912-1.961
	c-0.605-0.506-1.764-0.955-3.451-1.332c-2.404-0.533-4.204-1.236-5.452-2.145c-1.2-0.893-1.818-2.117-1.818-3.664
	c0-1.613,0.674-2.999,2.059-4.123c1.386-1.134,3.151-1.705,5.343-1.705c2.337,0,4.161,0.582,5.531,1.78
	c1.383,1.181,2.018,2.632,1.962,4.329l-0.032,0.104h-3.467c0-0.861-0.358-1.647-1.088-2.342c-0.717-0.678-1.689-1.039-2.905-1.039
	c-1.275,0-2.232,0.287-2.832,0.842c-0.636,0.562-0.936,1.246-0.936,2.059c0,0.771,0.258,1.398,0.803,1.849
	c0.545,0.442,1.67,0.862,3.356,1.21c2.526,0.533,4.386,1.257,5.602,2.193c1.237,0.926,1.858,2.154,1.858,3.712
	c0,1.761-0.734,3.193-2.155,4.271c-1.407,1.105-3.278,1.641-5.584,1.641c-2.549,0-4.536-0.639-5.979-1.934
	c-1.444-1.28-2.158-2.78-2.081-4.496l0.052-0.103h3.432c0.062,1.281,0.529,2.214,1.446,2.811c0.883,0.574,1.926,0.871,3.132,0.871
	c1.275,0,2.303-0.253,3.032-0.777C-9.757,74.612-9.387,73.923-9.387,73.077z M0.943,61.165c0.662-0.939,1.523-1.688,2.499-2.23
	c1.008-0.524,2.112-0.786,3.335-0.786c2.097,0,3.767,0.63,4.926,1.899c1.187,1.277,1.786,3.235,1.786,5.879v12.445H9.867V65.889
	c0-1.631-0.353-2.851-1.046-3.635c-0.697-0.788-1.764-1.183-3.134-1.183c-1.026,0-1.925,0.246-2.752,0.721
	c-0.81,0.471-1.48,1.1-1.992,1.906v14.675h-3.635V49.731h3.635V61.165L0.943,61.165z M21.544,53.425h-3.636v-3.693h3.636V53.425z
	 M21.544,78.372h-3.636V58.513h3.636V78.372z M42.931,67.462c-0.154-2.584-0.848-4.713-2.004-6.391
	c-1.367-1.96-3.281-2.923-5.737-2.923c-1.277,0-2.413,0.243-3.373,0.749c-0.976,0.494-1.766,1.237-2.42,2.174l-0.577-2.559h-2.772
	V86h3.635v-9.708c0.634,0.815,1.424,1.442,2.344,1.844c0.92,0.414,1.987,0.621,3.224,0.621c2.415,0,4.309-0.883,5.681-2.636
	c0.857-1.104,1.382-2.143,1.686-3.693h-1.311L42.931,67.462z M39.367,69.187c0,1.979-0.466,3.6-1.33,4.844
	c-0.863,1.257-2.174,1.875-3.881,1.875c-1.087,0-1.984-0.216-2.714-0.684c-0.732-0.466-1.333-1.104-1.763-1.919v-9.589
	c0.43-0.815,1.03-1.461,1.763-1.93c0.728-0.469,1.613-0.713,2.662-0.713c1.741,0,3.037,0.738,3.916,2.174
	c0.883,1.463,1.347,3.3,1.347,5.551V69.187L39.367,69.187z"/>
<path id="AVL" fill="#FFFFFF" d="M59.104,49.497h-5.939l-6.238,17.657l-3.398,0.009l-1.681,4.966h3.54l-2.268,6.487h5.863
	l2.064-6.41h10.14l2.082,6.41h5.881L59.104,49.497z M52.49,67.154l3.633-10.87l0,0l3.656,10.868L52.49,67.154z M72.693,68.033
	l0.415,1.21l0,0l0.408-1.161l6.244-18.378h6.115l-9.805,28.799h-5.909l-9.78-28.799h6.086L72.693,68.033z M92.097,72.984h12.837
	l-1.39,5.519H86.336V49.704h5.76L92.097,72.984L92.097,72.984z"/>
</svg>
